<?xml version="1.0" encoding="UTF-8" standalone="no"?>
<svg
   xmlns:dc="http://purl.org/dc/elements/1.1/"
   xmlns:cc="http://creativecommons.org/ns#"
   xmlns:rdf="http://www.w3.org/1999/02/22-rdf-syntax-ns#"
   xmlns:svg="http://www.w3.org/2000/svg"
   xmlns="http://www.w3.org/2000/svg"
   xmlns:sodipodi="http://sodipodi.sourceforge.net/DTD/sodipodi-0.dtd"
   xmlns:inkscape="http://www.inkscape.org/namespaces/inkscape"
   viewBox="0 0 1272.0097 158.99947"
   version="1.1"
   id="svg35"
   sodipodi:docname="header.svg"
   width="1272.0098"
   height="158.99947"
   inkscape:version="0.92.5 (2060ec1f9f, 2020-04-08)"
   inkscape:export-filename="/tmp/linkedin2.png"
   inkscape:export-xdpi="96"
   inkscape:export-ydpi="96">
  <metadata
     id="metadata39">
    <rdf:RDF>
      <cc:Work
         rdf:about="">
        <dc:format>image/svg+xml</dc:format>
        <dc:type
           rdf:resource="http://purl.org/dc/dcmitype/StillImage" />
        <dc:title>Serlo Logo</dc:title>
      </cc:Work>
    </rdf:RDF>
  </metadata>
  <sodipodi:namedview
     pagecolor="#ffffff"
     bordercolor="#666666"
     borderopacity="1"
     objecttolerance="10"
     gridtolerance="10"
     guidetolerance="10"
     inkscape:pageopacity="0"
     inkscape:pageshadow="2"
     inkscape:window-width="1918"
     inkscape:window-height="1038"
     id="namedview37"
     showgrid="false"
     inkscape:zoom="0.744571"
     inkscape:cx="309.85027"
     inkscape:cy="-96.018733"
     inkscape:window-x="0"
     inkscape:window-y="20"
     inkscape:window-maximized="0"
     inkscape:current-layer="svg35"
     inkscape:pagecheckerboard="false"
     fit-margin-top="20"
     fit-margin-right="150"
     fit-margin-bottom="20"
     fit-margin-left="150" />
  <defs
     id="defs7">
    <style
       id="style2">.cls-1{fill:none;}.cls-2{clip-path:url(#clip-path);}.cls-3{fill:#007ec1;}</style>
    <clipPath
       id="clip-path">
      <rect
         class="cls-1"
         y="0.47999999"
         width="232.39999"
         height="107.52"
         id="rect4"
         x="0"
         style="fill:none" />
    </clipPath>
  </defs>
  <title
     id="title9">Serlo Logo</title>
  <text
     xml:space="preserve"
     style="font-style:normal;font-variant:normal;font-weight:normal;font-stretch:normal;font-size:40px;line-height:1.25;font-family:karmilla;-inkscape-font-specification:karmilla;letter-spacing:0px;word-spacing:0px;fill:#000000;fill-opacity:1;stroke:none"
     x="-164.50508"
     y="188.10054"
     id="text873"><tspan
       sodipodi:role="line"
       id="tspan871"
       x="-164.50508"
       y="224.47778" /></text>
  <text
     xml:space="preserve"
     style="font-style:normal;font-variant:normal;font-weight:normal;font-stretch:normal;font-size:40px;line-height:1.25;font-family:karmilla;-inkscape-font-specification:karmilla;letter-spacing:0px;word-spacing:0px;fill:#000000;fill-opacity:1;stroke:none"
     x="-172.10254"
     y="176.22948"
     id="text833"><tspan
       sodipodi:role="line"
       id="tspan831"
       x="-172.10254"
       y="212.60672"
       style="font-style:normal;font-variant:normal;font-weight:normal;font-stretch:normal;font-family:karmilla;-inkscape-font-specification:karmilla" /></text>
  <g
     id="g866"
     transform="translate(-407.89538,-120.73776)">
    <path
       class="cls-3"
       d="m 1402.484,259.71839 a 25.805747,25.805747 0 0 1 -5.8221,-0.56139 15.003552,15.003552 0 0 1 -4.129,-1.52118 7.153172,7.153172 0 0 1 -2.4538,-2.36327 5.4871168,5.4871168 0 0 1 -0.8149,-2.89748 4.1741928,4.1741928 0 0 1 0.489,-2.04635 4.9076193,4.9076193 0 0 1 1.4306,-1.47591 6.999243,6.999243 0 0 1 2.1912,-0.90547 12.006463,12.006463 0 0 1 2.8251,-0.28069 13.491426,13.491426 0 0 0 0.5342,3.9931 7.7779428,7.7779428 0 0 0 1.494,2.79789 5.8040295,5.8040295 0 0 0 2.2637,1.657 7.6783416,7.6783416 0 0 0 2.8975,0.53422 9.2719597,9.2719597 0 0 0 2.7164,-0.38935 6.6823303,6.6823303 0 0 0 1.992,-1.06845 4.5273241,4.5273241 0 0 0 1.2767,-1.657 4.9800565,4.9800565 0 0 0 0.4165,-2.01918 6.5917838,6.5917838 0 0 0 -0.2807,-1.9377 4.1741928,4.1741928 0 0 0 -1.0232,-1.69322 9.5707631,9.5707631 0 0 0 -2.0101,-1.74755 30.477946,30.477946 0 0 0 -3.3231,-1.81092 33.411652,33.411652 0 0 1 -3.6218,-2.22745 12.676507,12.676507 0 0 1 -2.653,-2.47192 9.2357411,9.2357411 0 0 1 -1.5846,-2.89748 11.091944,11.091944 0 0 1 -0.5342,-3.55848 8.4479867,8.4479867 0 0 1 0.996,-4.13798 8.955047,8.955047 0 0 1 2.7888,-3.24156 12.042682,12.042682 0 0 1 4.3734,-2.08257 20.554051,20.554051 0 0 1 5.7588,-0.74248 28.667016,28.667016 0 0 1 5.2245,0.41651 14.333508,14.333508 0 0 1 3.7034,1.20427 6.17527,6.17527 0 0 1 2.2274,1.81093 3.6218593,3.6218593 0 0 1 0.7425,2.19123 3.8210615,3.8210615 0 0 1 -1.657,3.2144 q -1.6389,1.14994 -5.4328,1.15899 a 11.263982,11.263982 0 0 0 -0.2445,-2.36326 6.0937782,6.0937782 0 0 0 -0.8511,-2.22744 4.88951,4.88951 0 0 0 -1.6208,-1.65701 4.5273241,4.5273241 0 0 0 -2.6168,-0.67004 7.4700847,7.4700847 0 0 0 -2.1188,0.31691 5.8583573,5.8583573 0 0 0 -1.9015,0.90547 4.9710018,4.9710018 0 0 0 -1.3763,1.59362 4.6812531,4.6812531 0 0 0 -0.5342,2.29082 4.9800565,4.9800565 0 0 0 0.4437,2.30894 5.559554,5.559554 0 0 0 1.3401,1.72944 14.795295,14.795295 0 0 0 2.2274,1.54834 c 0.9055,0.49801 1.9377,1.05939 3.142,1.66606 a 18.009695,18.009695 0 0 1 6.0032,4.52732 8.982211,8.982211 0 0 1 1.9377,5.72254 10.693539,10.693539 0 0 1 -1.0232,4.72652 9.2991236,9.2991236 0 0 1 -2.9699,3.4951 13.654409,13.654409 0 0 1 -4.6541,2.155 25.73331,25.73331 0 0 1 -6.1843,0.70627"
       id="path11"
       inkscape:connector-curvature="0"
       style="fill:#007ec1;stroke-width:0.90546483" />
    <path
       class="cls-3"
       d="m 1438.6392,234.82716 a 4.1289196,4.1289196 0 0 0 -2.4991,0.90546 10.023495,10.023495 0 0 0 -2.1188,2.39949 17.647509,17.647509 0 0 0 -1.6298,3.28683 19.648586,19.648586 0 0 0 -0.987,3.62186 h 0.4618 a 13.663464,13.663464 0 0 0 3.7034,-0.498 9.3172329,9.3172329 0 0 0 2.9699,-1.41253 6.8543686,6.8543686 0 0 0 1.9739,-2.19122 5.4780621,5.4780621 0 0 0 0.7063,-2.86127 3.730515,3.730515 0 0 0 -0.6701,-2.39948 2.2455527,2.2455527 0 0 0 -1.9105,-0.84209 m -1.8653,21.04301 a 8.5656971,8.5656971 0 0 0 2.5082,-0.35314 14.333508,14.333508 0 0 0 2.1822,-0.90546 9.597927,9.597927 0 0 0 1.8109,-1.31292 12.160392,12.160392 0 0 0 1.3763,-1.48497 2.4719189,2.4719189 0 0 1 0.498,0.9598 4.3824497,4.3824497 0 0 1 0.172,1.19521 3.5675314,3.5675314 0 0 1 -0.6338,1.91053 5.8493027,5.8493027 0 0 1 -1.9377,1.81093 11.363583,11.363583 0 0 1 -3.323,1.37631 18.725012,18.725012 0 0 1 -4.7628,0.56139 16.370804,16.370804 0 0 1 -4.6269,-0.63383 10.919906,10.919906 0 0 1 -3.812,-1.9377 8.9188284,8.9188284 0 0 1 -2.5806,-3.2144 10.340408,10.340408 0 0 1 -0.9055,-4.52732 15.266137,15.266137 0 0 1 0.5252,-3.88444 19.702914,19.702914 0 0 1 1.5574,-3.9931 18.960433,18.960433 0 0 1 2.5806,-3.70335 16.723935,16.723935 0 0 1 3.5585,-3.07858 17.403034,17.403034 0 0 1 4.5273,-2.08257 19.313564,19.313564 0 0 1 5.4328,-0.7787 9.960113,9.960113 0 0 1 5.967,1.5574 5.0524937,5.0524937 0 0 1 2.1188,4.34623 6.9720791,6.9720791 0 0 1 -1.2224,3.90255 11.671441,11.671441 0 0 1 -3.314,3.27778 16.886919,16.886919 0 0 1 -5.0525,2.15501 23.02597,23.02597 0 0 1 -6.3926,0.85114 h -0.9869 a 9.0546481,9.0546481 0 0 1 -1.0232,-0.0724 9.0546481,9.0546481 0 0 0 -0.072,0.98696 v 0.90546 a 6.4831281,6.4831281 0 0 0 1.4487,4.52732 5.4961714,5.4961714 0 0 0 4.3824,1.62079"
       id="path13"
       inkscape:connector-curvature="0"
       style="fill:#007ec1;stroke-width:0.90546483" />
    <path
       class="cls-3"
       d="m 1457.8532,236.72864 a 1.4849623,1.4849623 0 0 0 -0.6339,-1.34009 4.3552858,4.3552858 0 0 0 -2.1912,-0.38935 h -0.9054 l 0.4527,-2.64396 h 11.8706 l -1.2133,6.88153 h 0.2445 a 27.689114,27.689114 0 0 1 1.8109,-3.17818 11.771043,11.771043 0 0 1 2.0464,-2.29082 7.9318718,7.9318718 0 0 1 2.5443,-1.41253 10.385681,10.385681 0 0 1 3.2778,-0.46179 7.2437185,7.2437185 0 0 1 4.2376,0.98696 3.4136023,3.4136023 0 0 1 1.3763,2.93371 4.5273241,4.5273241 0 0 1 -1.6208,3.84822 7.488194,7.488194 0 0 1 -4.6994,1.26765 11.934026,11.934026 0 0 0 -0.072,-2.03729 4.8170728,4.8170728 0 0 0 -0.4256,-1.54835 2.5353015,2.5353015 0 0 0 -0.8149,-0.99601 2.4538096,2.4538096 0 0 0 -1.2676,-0.35313 2.8341049,2.8341049 0 0 0 -1.5937,0.57044 9.0546481,9.0546481 0 0 0 -1.6932,1.58457 15.909017,15.909017 0 0 0 -1.6208,2.37231 28.974874,28.974874 0 0 0 -1.5211,2.99709 34.914723,34.914723 0 0 0 -1.3401,3.42266 c -0.3894,1.20427 -0.7425,2.39948 -1.0232,3.62186 l -2.0463,8.68341 h -8.0858 l 4.5273,-20.11943 c 0.072,-0.28975 0.1086,-0.64288 0.2082,-1.09562 a 6.2205433,6.2205433 0 0 0 0.1449,-1.2767"
       id="path15"
       inkscape:connector-curvature="0"
       style="fill:#007ec1;stroke-width:0.90546483" />
    <path
       class="cls-3"
       d="m 1492.949,255.68907 a 4.4367776,4.4367776 0 0 0 1.5574,-0.2807 8.7648994,8.7648994 0 0 0 1.6208,-0.84208 l 1.2676,1.69322 a 9.4802166,9.4802166 0 0 1 -1.4487,1.23143 11.2006,11.2006 0 0 1 -1.811,1.13183 8.8645005,8.8645005 0 0 1 -2.2274,0.7787 11.082889,11.082889 0 0 1 -2.7164,0.2807 7.2437185,7.2437185 0 0 1 -4.7356,-1.37631 4.5907066,4.5907066 0 0 1 -1.657,-3.77579 28.911492,28.911492 0 0 1 0.8512,-5.96701 l 4.6359,-20.53594 c 0.072,-0.20826 0.1087,-0.42557 0.1811,-0.67005 0.072,-0.24447 0.1,-0.42556 0.1359,-0.63382 a 3.5132035,3.5132035 0 0 0 0.072,-0.53423 c 0,-0.13581 0,-0.24447 0,-0.31691 a 3.1510176,3.1510176 0 0 0 -0.1449,-1.09561 1.2948147,1.2948147 0 0 0 -0.4889,-0.63383 2.136897,2.136897 0 0 0 -0.9055,-0.28069 12.785163,12.785163 0 0 0 -1.3039,-0.0724 h -1.1318 l 0.498,-2.64395 h 12.9572 l -6.3926,27.50802 c -0.2082,0.90546 -0.3893,1.7566 -0.5251,2.5353 a 12.187556,12.187556 0 0 0 -0.2174,2.22744 2.6167933,2.6167933 0 0 0 0.4981,1.69322 1.6841646,1.6841646 0 0 0 1.3763,0.59761"
       id="path17"
       inkscape:connector-curvature="0"
       style="fill:#007ec1;stroke-width:0.90546483" />
    <path
       class="cls-3"
       d="m 1513.4668,256.09653 a 4.5273241,4.5273241 0 0 0 2.6078,-0.7787 7.9680904,7.9680904 0 0 0 2.0825,-2.04635 14.098087,14.098087 0 0 0 1.6299,-2.86127 26.928524,26.928524 0 0 0 1.1227,-3.35022 29.020147,29.020147 0 0 0 0.6429,-3.35022 24.882173,24.882173 0 0 0 0.2083,-2.96993 c 0,-1.97391 -0.3532,-3.38643 -1.0956,-4.23757 a 3.6761871,3.6761871 0 0 0 -2.9156,-1.32198 4.7446356,4.7446356 0 0 0 -2.5082,0.70626 8.1491833,8.1491833 0 0 0 -2.0825,1.9377 12.477305,12.477305 0 0 0 -1.6299,2.78883 25.353015,25.353015 0 0 0 -1.1952,3.28684 23.306664,23.306664 0 0 0 -0.7063,3.35022 23.868052,23.868052 0 0 0 -0.2535,3.07858 c 0,2.01013 0.3531,3.49509 1.0956,4.37339 a 3.6218593,3.6218593 0 0 0 3.0424,1.37631 m -12.3596,-6.91775 a 16.687717,16.687717 0 0 1 0.4527,-3.88445 18.66163,18.66163 0 0 1 1.4126,-3.92066 17.683728,17.683728 0 0 1 2.4085,-3.62186 15.465339,15.465339 0 0 1 3.3864,-3.00614 16.298367,16.298367 0 0 1 4.4096,-2.09163 19.078144,19.078144 0 0 1 5.4328,-0.74248 15.981454,15.981454 0 0 1 4.3372,0.59761 9.6794189,9.6794189 0 0 1 3.6038,1.87431 8.466096,8.466096 0 0 1 2.3994,3.28684 11.526567,11.526567 0 0 1 0.9055,4.79896 15.990509,15.990509 0 0 1 -0.4618,3.77579 15.791306,15.791306 0 0 1 -1.3763,3.88445 19.630477,19.630477 0 0 1 -2.3633,3.67618 15.990509,15.990509 0 0 1 -3.3592,3.06953 15.601159,15.601159 0 0 1 -4.4096,2.08257 17.738056,17.738056 0 0 1 -5.5053,0.7787 16.008618,16.008618 0 0 1 -4.6269,-0.63383 10.412845,10.412845 0 0 1 -3.6218,-1.94675 9.0546481,9.0546481 0 0 1 -2.3271,-3.314 14.433109,14.433109 0 0 1 -0.7425,-4.66314"
       id="path19"
       inkscape:connector-curvature="0"
       style="fill:#007ec1;stroke-width:0.90546483" />
    <path
       sodipodi:nodetypes="cscccccccscccccccccccccccscccccccccccc"
       class="cls-3"
       d="m 1359.0696,202.19538 h -0.09 c -0.09,0 -0.1812,-0.4228 -0.3474,-0.8909 -1.3199,-3.5967 -3.0905,-7.01142 -5.2699,-10.16241 -2.1856,-2.77236 -4.6609,-5.3034 -7.384,-7.55008 -4.5605,-3.49373 -9.3645,-6.65768 -14.3753,-9.46778 -4.5584,-2.62463 -8.8695,-5.65706 -12.8804,-9.0601 -3.1863,-2.51978 -5.8485,-5.63868 -7.837,-9.18088 -2.6426,-4.81696 -4.2432,-9.3319 -4.3791,-12.41233 0,-0.69461 0,-1.01171 0.075,-1.10231 0.075,-0.0907 0.302,0.0907 0.7249,0.7852 1.5516,2.5562 3.464,4.87529 5.6776,6.88568 4.3431,3.79364 9.1786,6.98343 14.3752,9.48289 4.8774,2.47642 12.0804,6.34206 14.2698,7.64066 5.6243,3.35925 10.7995,7.41836 15.4021,12.08014 0.9061,0.92109 2.7181,2.94453 2.9144,3.23143 0,0.0907 -0.3021,0.3171 -0.8153,0.61911 -1.5296,0.86149 -2.8699,2.02209 -3.9411,3.41262 l -0.1209,0.16611 c 0.1881,-0.13077 0.3648,-0.27728 0.5284,-0.43791 1.3024,-1.14255 2.7682,-2.08412 4.3489,-2.79353 l 0.6341,-0.28689 v 0 l 0.9061,1.17781 c 0.9526,1.285 1.8348,2.62083 2.6425,4.00153 0.2417,0.42282 0.5284,0.92112 0.5284,0.93622 0,0.0151 -0.2113,0.12081 -0.3018,0.1359 -1.1931,0.46905 -2.3239,1.08266 -3.3675,1.82712 -0.5889,0.40965 -1.1002,0.92098 -1.51,1.51001 v 0 c 0.2792,-0.0535 0.5522,-0.13439 0.8155,-0.2416 1.2306,-0.44283 2.5276,-0.67263 3.8354,-0.67951 0.635,9.9e-4 1.2679,0.0729 1.8875,0.21139 0.7439,0.16426 1.4573,0.44453 2.1141,0.83052 -0.2918,0.22264 -0.6055,0.4149 -0.9363,0.57381 -1.7837,0.95273 -3.4381,2.13006 -4.9226,3.50322 -1.3714,1.21455 -2.3845,2.78109 -2.9294,4.53005 -0.1208,0.52852 -0.2113,0.72481 -0.317,0.72481"
       id="path21"
       inkscape:connector-curvature="0"
       style="fill:#007ec1;stroke-width:1.51001501" />
    <path
       sodipodi:nodetypes="ccccccccccccccccccccccc"
       class="cls-3"
       d="m 1358.4957,220.04377 -2.5368,-5.75317 c 0.2242,-6.49438 -1.343,-12.92521 -4.5299,-18.58828 -1.3476,-2.1778 -2.8622,-4.24772 -4.5302,-6.19106 -2.3774,-2.64914 -5.0015,-5.06601 -7.8369,-7.21787 -2.7656,-1.96006 -5.6281,-3.77943 -8.5769,-5.45117 0,0 -4.5301,-2.68781 -8.5468,-5.67765 -3.7643,-2.62576 -7.0788,-5.84342 -9.815,-9.52819 -1.6995,-2.2646 -3.1237,-4.72302 -4.2432,-7.32357 -1.3633,-3.0759 -2.2592,-6.33837 -2.6576,-9.6792 v 0 c 0.8996,4.43262 2.5219,8.68718 4.8019,12.59351 2.0558,3.18996 4.5007,6.11165 7.2783,8.6977 v 0 c 0,0 3.6391,3.20123 6.5232,5.17936 l 1.2231,0.81539 c 1.51,0.99662 3.5183,2.28014 4.364,2.74824 0,0 6.81,4.06195 12.7446,8.56179 2.8532,2.15836 5.4837,4.59656 7.852,7.27827 1.2714,1.57028 2.389,3.25919 3.3371,5.04345 2.3104,4.30151 3.8149,8.98914 4.4395,13.83174 l 0.7399,10.66071 z"
       id="path23"
       inkscape:connector-curvature="0"
       style="fill:#007ec1;stroke-width:1.51001501" />
    <path
       sodipodi:nodetypes="ccccccccccccccccscccccccccccccccccccccccccccccccccccc"
       class="cls-3"
       d="m 1355.5662,207.61634 v 0 c -0.2594,-0.23658 -0.4741,-0.51791 -0.6341,-0.8305 v 0 c -1.7558,-2.76912 -4.2223,-5.01659 -7.1424,-6.50819 -1.1303,-0.46381 -2.3111,-0.79325 -3.5183,-0.98149 -0.5013,-0.0557 -1.0057,-0.0809 -1.51,-0.0755 h -0.6644 -1.3893 v 0 -0.80031 c -0.1522,-1.82831 -0.9879,-3.5321 -2.3404,-4.77165 l -0.438,-0.37749 v 0 l 0.4077,-0.18121 c 1.1125,-0.45391 2.2897,-0.72912 3.4882,-0.81541 0.906,0 1.0268,-0.12082 1.0268,-0.15101 0,-0.0302 -0.1661,0 -1.5101,-0.1057 h -0.2415 c -1.0941,0.0136 -2.1812,0.17652 -3.2314,0.4832 l -0.7701,0.1963 v 0 l -0.876,-0.58891 c -1.3972,-0.91477 -2.844,-1.75159 -4.3336,-2.50662 -0.4008,-0.18851 -0.7846,-0.41079 -1.1477,-0.66442 1.0803,-0.41012 2.2056,-0.68896 3.3522,-0.8305 1.5404,-0.27312 3.1017,-0.40954 4.666,-0.40771 0.7371,-9.8e-4 1.4734,0.0438 2.2047,0.13591 h 0.1963 v 0 c -0.3573,-0.0983 -0.7204,-0.17396 -1.0872,-0.22651 -1.3433,-0.21297 -2.702,-0.31399 -4.062,-0.302 -2.0953,-0.009 -4.1854,0.20497 -6.2364,0.63422 l -0.9361,0.21139 v 0 l -1.9329,-1.04191 c -4.0788,-2.08539 -7.9691,-4.5206 -11.6271,-7.27827 -2.4175,-1.95563 -4.7121,-4.05856 -6.8705,-6.29676 -0.7756,-0.83141 -1.5065,-1.70344 -2.1896,-2.61233 0,0 -0.3171,-0.4983 -0.8003,-1.2231 -4.8247,-7.01857 -5.8542,-15.97316 -2.7483,-23.90354 0.6736,-1.78948 1.5663,-3.48862 2.6576,-5.05856 0.1134,0.71964 0.1793,1.44605 0.1964,2.17441 0.02,1.21167 0.1472,2.41922 0.3775,3.60894 1.0171,4.77895 2.906,9.32959 5.5721,13.42404 0.8455,1.34391 2.295,3.36733 3.1558,4.42435 2.5368,3.17102 9.8,8.78828 16.6102,12.85022 3.3133,1.89617 6.5101,3.98877 9.5735,6.26657 2.5194,1.83503 4.8063,3.96978 6.8102,6.35715 1.8857,2.26362 3.4976,4.74212 4.8018,7.38398 1.2637,2.53745 2.212,5.22006 2.8237,7.98797 0.238,0.75748 0.3602,1.54655 0.3624,2.34054 v 0"
       id="path25"
       inkscape:connector-curvature="0"
       style="fill:#007ec1;stroke-width:1.51001501" />
    <path
       sodipodi:nodetypes="csszszzzccccccccccccc"
       class="cls-3"
       d="m 559.37432,183.61729 c 0,0 732.24858,-0.20022 739.67208,0 7.5995,0.20497 12.7476,0.74249 15.9304,1.46285 3.9983,0.90499 6.2097,1.09914 8.8011,3.32187 2.5911,2.22277 4.8063,4.92825 1.986,6.75915 -3.7596,2.44079 -11.8006,3.55004 -15.423,4.37176 -3.6224,0.8217 -3.8689,1.65589 -2.5807,3.17881 1.2882,1.52291 8.541,5.69416 16.427,8.14236 7.8861,2.44819 20.6097,5.56156 29.7484,5.55053 v 0 l 2.4764,4.00155 v 0 c -5.2667,-0.31747 -10.5136,-0.90716 -15.7193,-1.76672 -7.7944,-1.23942 -15.4438,-3.26306 -22.8314,-6.04006 -3.5021,-1.29932 -6.8909,-2.88518 -10.1324,-4.74145 -4.2128,-2.50663 -6.5079,-4.92264 -6.8402,-7.12728 -0.1065,-1.29468 0.5086,-2.54284 1.6007,-3.24652 1.8119,-1.38921 3.4261,-2.04047 7.7297,-2.46327 3.5145,-0.42827 5.3487,-0.4739 10.3402,-2.40728 1.0636,-4.69075 -18.1185,-4.3855 -21.3121,-4.46625 -5.1537,-0.13682 -748.53911,0.24276 -741.29928,-0.0896"
       id="path27"
       inkscape:connector-curvature="0"
       style="fill:#007ec1;stroke-width:1.51001501" />
    <path
       sodipodi:nodetypes="cccccc"
       class="cls-3"
       d="m 1378.5035,212.73529 c -2.8594,-0.1794 -2.9276,-4.36333 -0.075,-4.63574 h 0.09 c 2.0115,0.0205 3.0498,2.41234 1.6912,3.89584 -0.4223,0.44679 -1.0015,0.71209 -1.6156,0.7399 h -0.1049"
       id="path29"
       inkscape:connector-curvature="0"
       style="fill:#007ec1;stroke-width:1.51001501" />
    <path
       sodipodi:nodetypes="cccccccccccccccccccccccccccccccccccccccccccccscccccc"
       class="cls-3"
       d="m 1355.0378,239.67396 h -1.51 c -5.7461,-0.18083 -11.4237,-1.30306 -16.8064,-3.32203 -6.0917,-2.13286 -11.9506,-4.88016 -17.4861,-8.1994 -5.082,-3.07636 -10.3579,-5.82026 -15.7948,-8.21448 -3.9909,-1.74371 -8.1105,-3.17741 -12.3217,-4.28844 -3.4553,-0.88509 -7.0035,-1.3565 -10.57,-1.40432 h -1.1326 c -2.4436,0.0331 -4.8658,0.46145 -7.1726,1.26842 -0.2203,0.10295 -0.4541,0.1742 -0.6944,0.21141 h -0.06 v 0 c 0,0 0.483,-0.61911 1.2079,-1.16271 2.6252,-1.72028 5.6221,-2.79165 8.743,-3.12573 1.5035,-0.17471 3.0165,-0.25539 4.53,-0.2416 2.0805,-0.0198 4.1597,0.11144 6.2213,0.3926 5.5276,1.09994 10.9196,2.79603 16.0816,5.05855 2.4764,1.01171 8.1994,3.57874 10.3738,4.63575 2.5066,1.22311 5.5116,2.52172 7.6256,3.33713 3.307,1.25331 11.0383,3.82034 14.0432,4.63575 3.3956,0.88978 6.8804,1.39629 10.3888,1.51001 h 1.1628 c 2.9577,9.9e-4 5.9109,-0.2257 8.8334,-0.67951 1.8504,-0.37504 3.6718,-0.87963 5.4513,-1.51001 3.5303,-1.26407 6.8727,-3.00133 9.9359,-5.16426 2.9141,-1.78871 5.632,-3.87899 8.1087,-6.23635 0.8132,-0.80795 1.7267,-1.50825 2.7181,-2.08383 0.9497,-0.6098 1.9623,-1.11604 3.0201,-1.51002 l 0.6039,-0.19628 -0.4076,-0.25672 c -1.8825,-1.17579 -3.4605,-2.77969 -4.6057,-4.68105 -0.8506,-1.22983 -1.9585,-2.26024 -3.2465,-3.02002 -1.308,-0.75071 -2.7956,-1.13171 -4.3035,-1.10231 h -0.7247 c -2.3931,0.1568 -4.7134,0.88706 -6.765,2.12912 -0.4762,0.28641 -0.9825,0.51935 -1.51,0.69461 v 0 c 0,0 0.3474,-0.4681 1.2684,-1.32883 0.6644,-0.58889 1.51,-1.35901 2.0536,-1.7063 1.3408,-0.91924 2.7983,-1.65557 4.3338,-2.18953 0.9217,-0.29539 1.8865,-0.43323 2.8539,-0.40771 h 1.208 c 0.5093,-0.009 1.0171,0.0532 1.51,0.1812 2.6018,0.61268 4.9086,2.11316 6.5233,4.24315 2.7785,3.18613 5.6021,5.40586 7.5501,5.93438 0.2114,0 0.619,0.18118 0.619,0.24159 0,0.0605 -0.5737,0.36241 -0.8757,0.51341 -1.8165,0.94825 -3.567,2.01775 -5.2398,3.20122 -3.0688,2.30357 -5.724,5.11191 -7.852,8.30508 -2.5631,3.54755 -5.7325,6.61468 -9.3622,9.06009 -4.7502,3.16292 -10.1462,5.22637 -15.7947,6.04005 -0.8774,0.15464 -1.7667,0.23045 -2.6576,0.22652"
       id="path31"
       inkscape:connector-curvature="0"
       style="fill:#007ec1;stroke-width:1.51001501" />
    <text
       id="text851"
       y="171.70978"
       x="564.08319"
       style="font-style:normal;font-variant:normal;font-weight:normal;font-stretch:normal;font-size:40px;line-height:1.25;font-family:karmilla;-inkscape-font-specification:karmilla;letter-spacing:0px;word-spacing:0px;fill:#007ec1;fill-opacity:1;stroke:none"
       xml:space="preserve"><tspan
         style="font-style:normal;font-variant:normal;font-weight:normal;font-stretch:normal;font-size:37.33333206px;font-family:karmilla;-inkscape-font-specification:karmilla;fill:#007ec1;fill-opacity:1"
         y="171.70978"
         x="564.08319"
         id="tspan849"
         sodipodi:role="line">Let's achieve educational equity together!</tspan></text>
  </g>
</svg>
